<?xml version="1.0" standalone="no"?>
<!DOCTYPE svg PUBLIC "-//W3C//DTD SVG 20010904//EN"
 "http://www.w3.org/TR/2001/REC-SVG-20010904/DTD/svg10.dtd">
<svg version="1.0" xmlns="http://www.w3.org/2000/svg"
 width="960.000000pt" height="960.000000pt" viewBox="0 0 960.000000 960.000000"
 preserveAspectRatio="xMidYMid meet">

<g transform="translate(0.000000,960.000000) scale(0.100000,-0.100000)"
fill="#000000" stroke="none">
<path d="M3139 7683 c-3 -22 5 -61 17 -85 8 -16 13 -28 11 -28 -3 0 -30 11
-62 25 -72 32 -145 44 -145 23 0 -16 59 -75 145 -143 75 -60 91 -85 29 -45
-48 30 -112 54 -175 65 -38 7 -119 -10 -119 -24 0 -5 29 -23 65 -40 36 -16 65
-33 65 -36 0 -4 -24 -6 -52 -5 -98 4 -128 1 -128 -14 0 -17 42 -49 85 -64 l30
-10 -30 -1 c-132 -4 -77 -57 80 -77 l60 -8 -81 -6 c-78 -5 -125 -23 -107 -41
5 -5 38 -15 73 -22 59 -13 63 -15 40 -24 -21 -9 -71 -53 -59 -53 2 0 22 7 44
15 44 15 162 20 183 6 11 -6 8 -14 -12 -36 -15 -16 -25 -30 -23 -32 2 -2 24 8
48 21 45 25 158 66 181 66 7 0 -9 -11 -37 -24 -57 -28 -49 -33 15 -11 23 8 76
15 116 15 88 0 162 -29 259 -102 80 -60 106 -73 197 -99 75 -21 136 -61 151
-99 11 -29 28 12 25 61 -3 43 -1 47 27 59 l30 12 -35 9 c-19 5 -52 14 -73 20
-24 6 -66 36 -115 81 -77 70 -199 141 -290 169 -33 9 -44 18 -48 38 -3 14 -18
51 -33 81 -30 57 -48 140 -32 140 22 0 91 -150 91 -197 0 -16 10 -27 38 -39
139 -61 205 -99 277 -162 l80 -69 75 5 c84 5 72 20 -18 21 -46 1 -57 5 -78 30
-41 49 -165 136 -257 182 -82 41 -88 46 -98 84 -12 47 -78 162 -107 188 -20
19 -21 18 -28 -18 -7 -39 -1 -138 11 -167 4 -10 3 -18 -2 -18 -6 0 -16 19 -23
43 -29 97 -114 231 -194 305 -41 38 -84 55 -87 35z m70 -38 c37 -32 110 -133
145 -202 39 -79 32 -75 -24 10 -55 84 -98 137 -112 137 -5 0 -6 -9 -3 -20 3
-11 2 -20 -3 -20 -8 0 -62 100 -62 114 0 14 31 4 59 -19z m-109 -69 c49 -23
190 -153 190 -175 0 -8 -6 -6 -17 7 -25 29 -103 92 -114 92 -6 0 1 -15 15 -33
37 -48 32 -55 -13 -16 -21 19 -66 56 -100 82 -94 75 -75 97 39 43z m-36 -126
l31 -20 -35 6 -35 5 28 -16 c39 -22 26 -32 -15 -12 -18 9 -63 23 -100 32 -95
24 -88 40 13 32 56 -5 91 -13 113 -27z m-119 -79 c33 -7 35 -9 12 -10 -41 -2
-29 -23 24 -41 100 -35 68 -34 -56 2 -80 23 -103 37 -83 49 16 11 51 10 103 0z
m70 -101 l30 -8 -30 -2 c-29 -1 -29 -2 10 -15 50 -16 20 -19 -61 -5 -92 16
-104 20 -104 30 0 12 110 11 155 0z m15 -80 c25 -8 25 -8 -5 -10 -30 -2 -30
-2 -5 -10 18 -6 8 -8 -40 -9 -66 -1 -111 12 -80 23 13 4 62 11 95 13 6 1 21
-3 35 -7z"/>
<path d="M4335 7330 c-3 -5 7 -12 22 -16 69 -15 117 -40 174 -92 34 -31 57
-47 51 -35 -21 39 -113 112 -168 132 -62 24 -70 25 -79 11z"/>
<path d="M4528 7275 c53 -48 112 -135 112 -167 0 -15 -9 -18 -58 -18 -69 0
-154 -14 -241 -41 -41 -12 -94 -19 -150 -19 l-86 -1 30 -17 c17 -10 62 -19
105 -22 l75 -5 -35 -19 c-34 -18 -100 -74 -100 -85 0 -4 30 -5 67 -3 l68 3
-27 -25 c-16 -14 -28 -27 -28 -29 0 -3 15 -8 33 -11 29 -6 30 -8 12 -18 -28
-15 -65 -50 -77 -72 -10 -18 -7 -18 32 -12 23 4 59 16 81 26 33 17 39 18 39 5
0 -18 12 -19 28 -3 27 27 20 -3 -13 -52 -19 -28 -35 -56 -35 -62 0 -10 55 26
65 42 8 13 65 53 65 45 0 -3 -24 -31 -52 -62 -50 -53 -51 -55 -19 -38 19 9 56
38 83 62 26 25 48 41 48 36 0 -17 -71 -93 -102 -109 -45 -23 -25 -29 28 -9 27
10 70 41 105 75 75 74 78 39 5 -69 l-29 -44 29 7 c33 7 94 71 94 97 0 10 5 21
10 24 6 4 10 -11 10 -39 0 -58 14 -66 30 -16 10 31 11 54 2 109 -17 98 -15
131 8 174 11 20 20 43 20 50 0 8 -9 22 -20 32 -24 21 -26 41 -5 49 21 8 19 26
-4 26 -24 0 -45 25 -37 46 4 11 14 15 32 11 26 -5 26 -4 19 42 -4 25 -11 54
-17 64 -5 10 -7 25 -4 33 3 8 -4 19 -16 25 -19 10 -20 9 -13 -7 20 -50 27 -75
22 -80 -3 -3 -27 11 -55 30 -48 35 -112 67 -162 81 -19 5 -13 -4 28 -40z"/>
<path d="M4610 7300 c0 -6 8 -13 18 -17 9 -3 28 -15 41 -27 l24 -21 -11 21
c-10 19 -53 54 -67 54 -3 0 -5 -5 -5 -10z"/>
<path d="M4925 7280 c-8 -37 -17 -38 -35 -5 -18 34 -30 32 -30 -5 0 -34 -5
-37 -28 -13 -16 15 -17 14 -23 -20 -3 -21 -8 -40 -11 -42 -3 -3 -17 13 -32 36
-15 22 -30 38 -33 35 -4 -3 1 -14 10 -24 10 -10 26 -36 37 -58 10 -21 19 -33
20 -26 0 9 8 9 35 -3 60 -24 84 -60 87 -124 1 -31 5 -41 18 -41 24 0 72 50 65
68 -3 7 -5 25 -5 38 0 21 -4 24 -21 19 -20 -7 -20 -6 -5 24 18 34 21 55 6 46
-6 -4 -10 7 -10 25 0 29 -24 100 -34 100 -2 0 -7 -13 -11 -30z"/>
<path d="M4231 7286 c-8 -9 -9 -16 -3 -16 6 0 45 -5 88 -11 83 -11 161 -44
207 -87 15 -14 27 -21 27 -15 0 19 -82 84 -138 110 -69 32 -162 42 -181 19z"/>
<path d="M4740 7296 c0 -3 11 -17 25 -32 28 -30 34 -21 9 14 -13 19 -34 30
-34 18z"/>
<path d="M4184 7211 c-35 -9 -54 -19 -54 -30 0 -4 62 -7 138 -7 75 1 155 -2
177 -7 l40 -7 -35 16 c-37 17 -169 44 -210 43 -14 -1 -39 -4 -56 -8z"/>
<path d="M5007 7178 c-4 -12 -1 -25 5 -29 6 -4 8 -11 4 -17 -3 -5 1 -13 10
-16 21 -8 13 -56 -16 -96 -13 -19 -17 -31 -10 -35 8 -5 7 -12 -2 -23 -12 -13
-10 -14 9 -4 28 15 40 35 25 40 -8 2 -8 10 2 25 8 12 18 44 22 71 6 43 5 48
-10 43 -13 -5 -16 0 -16 28 0 39 -15 47 -23 13z"/>
<path d="M4320 7133 c-53 -10 -45 -24 10 -17 75 9 108 23 55 22 -22 0 -51 -3
-65 -5z"/>
<path d="M4295 7079 c-60 -15 -97 -28 -81 -28 25 -1 183 37 195 46 16 12 -19
7 -114 -18z"/>
<path d="M2934 7066 c-37 -16 -46 -27 -35 -45 6 -9 24 -4 75 23 l68 36 -39 0
c-21 -1 -52 -7 -69 -14z"/>
<path d="M4879 7079 c0 -2 -3 -19 -5 -36 -4 -28 -2 -33 15 -33 25 0 29 41 6
60 -8 7 -15 11 -16 9z"/>
<path d="M3284 7046 c-65 -24 -87 -36 -235 -132 -123 -80 -195 -116 -222 -112
-19 3 -15 9 29 43 28 22 82 60 120 83 91 57 51 45 -50 -16 -96 -58 -162 -114
-152 -130 13 -21 44 -13 134 32 81 40 187 75 198 64 2 -3 -10 -13 -28 -21 -18
-9 -29 -17 -24 -17 5 0 -10 -16 -33 -37 -56 -49 -121 -112 -121 -118 0 -2 43
21 96 51 53 31 98 53 101 51 5 -6 -168 -114 -214 -133 -37 -16 -73 -18 -73 -5
0 13 67 71 152 131 43 29 76 55 74 58 -6 5 -115 -59 -179 -106 -57 -42 -83
-81 -73 -107 6 -17 39 -17 109 0 21 6 27 4 27 -9 0 -9 11 -22 25 -28 34 -15
115 17 220 87 86 58 178 135 120 100 -16 -10 -39 -25 -50 -35 -34 -29 -140
-89 -185 -105 -50 -18 -69 -19 -105 -5 -25 9 -23 12 72 76 54 36 105 73 113
82 22 24 61 45 68 37 4 -4 -1 -11 -11 -16 -17 -10 -129 -101 -156 -127 -30
-29 1 -21 71 19 176 102 268 146 268 130 0 -15 -122 -131 -155 -149 -17 -8
-25 -17 -17 -19 13 -5 129 55 171 88 13 11 26 17 29 14 10 -9 -53 -88 -91
-113 -73 -49 -6 -35 76 15 36 22 37 23 37 3 0 -25 -54 -131 -87 -170 -14 -17
-23 -34 -19 -37 3 -3 28 6 56 20 57 30 64 24 20 -18 -16 -16 -28 -30 -26 -32
7 -7 81 34 115 63 18 14 34 24 38 21 3 -4 -1 -27 -9 -52 -9 -25 -12 -45 -8
-45 8 0 46 43 67 76 10 16 12 13 12 -25 1 -37 3 -42 16 -31 10 8 15 9 15 1 0
-6 -23 -29 -51 -51 -52 -41 -84 -54 -57 -22 33 38 27 41 -18 12 -26 -16 -58
-30 -71 -30 l-23 0 23 38 c13 20 27 43 31 50 4 7 -16 1 -44 -14 l-52 -27 -17
22 c-16 21 -17 21 -37 3 -27 -26 -60 -43 -67 -35 -8 8 24 52 91 124 30 33 53
61 51 63 -4 5 -109 -72 -146 -106 -40 -37 -42 -118 -3 -118 10 0 32 11 49 25
25 22 33 24 50 13 15 -9 25 -9 45 0 31 14 32 13 5 -33 -27 -45 -16 -58 33 -41
26 9 38 10 41 3 5 -16 89 19 117 48 26 28 42 33 34 10 -4 -8 -2 -15 3 -15 18
0 104 62 115 84 10 20 10 20 -8 5 -10 -9 -33 -24 -50 -32 l-32 -16 -4 28 c-3
19 6 48 24 83 28 50 29 51 24 18 -3 -19 -8 -46 -12 -58 -7 -24 -6 -24 22 -9
16 9 48 34 72 58 63 63 50 11 -24 -93 -48 -67 -26 -60 40 14 31 34 63 63 70
64 34 5 56 17 56 30 0 8 -4 14 -10 14 -5 0 -10 9 -10 20 0 11 6 20 14 20 25 0
74 49 81 80 17 78 -26 132 -140 178 -116 47 -158 70 -222 126 -114 97 -200
116 -319 72z"/>
<path d="M2989 7022 c-20 -18 -29 -33 -25 -41 9 -15 27 -2 57 41 26 36 8 36
-32 0z"/>
<path d="M4792 7038 c-16 -16 -15 -30 4 -54 15 -18 15 -18 9 3 -3 12 -1 31 5
43 12 22 1 27 -18 8z"/>
<path d="M5574 7025 c10 -8 23 -16 29 -18 6 -2 -8 -51 -31 -113 -23 -60 -42
-115 -42 -122 0 -6 18 -15 40 -18 31 -5 40 -11 40 -26 0 -16 -5 -18 -32 -13
-29 5 -36 1 -59 -32 -21 -31 -37 -41 -86 -55 -33 -10 -87 -29 -120 -44 -51
-23 -64 -34 -82 -71 -11 -24 -21 -45 -21 -48 0 -8 114 35 129 49 22 19 120 76
131 76 6 0 10 -27 10 -60 0 -32 6 -79 14 -102 8 -24 24 -83 37 -133 l22 -90
-37 -98 c-20 -54 -46 -117 -57 -140 l-21 -41 21 -17 c19 -16 21 -27 21 -121 0
-88 -4 -113 -27 -175 -22 -58 -32 -73 -48 -73 -11 0 -88 18 -170 41 -83 22
-161 41 -175 41 -13 0 -40 12 -58 26 l-33 25 -29 -28 c-17 -16 -30 -34 -30
-41 0 -6 -7 -17 -16 -25 -8 -7 -22 -25 -30 -41 -17 -33 -31 -148 -18 -148 6 0
22 21 38 48 24 41 97 111 126 120 7 3 8 -11 4 -37 -4 -23 -4 -41 0 -41 3 0 44
-11 91 -25 83 -24 348 -75 390 -75 23 0 119 146 252 383 28 51 45 58 19 8 -9
-16 -16 -36 -16 -44 0 -12 79 -60 230 -140 30 -16 59 -33 64 -37 8 -8 38 -101
103 -327 20 -68 41 -123 47 -123 6 0 18 -19 26 -42 15 -41 17 -43 54 -42 21 1
41 6 45 11 3 6 22 13 41 17 38 7 140 88 140 111 0 11 -13 8 -52 -10 -54 -25
-112 -32 -137 -16 -12 7 -12 13 -3 24 7 7 10 16 7 18 -2 3 -31 113 -64 244
l-60 240 -63 58 c-222 206 -241 221 -249 200 -6 -17 -20 -22 -71 -27 -35 -4
-80 -9 -100 -12 -21 -3 -38 -2 -38 4 0 5 36 14 81 20 44 7 85 14 90 17 5 4 10
54 10 113 1 71 4 97 9 77 7 -27 8 -26 9 15 0 25 6 61 12 80 6 19 12 78 13 130
l1 95 195 6 c199 6 224 10 234 35 3 8 13 14 23 14 10 0 32 8 48 17 17 9 48 19
70 23 38 7 39 8 8 9 -48 2 -40 21 10 23 l42 1 -50 6 -50 6 35 23 c40 25 33 29
-11 6 -39 -20 -49 -11 -18 15 13 11 20 20 14 21 -12 0 -52 -31 -107 -83 -35
-32 -42 -35 -52 -22 -9 13 -60 17 -291 25 -155 6 -296 15 -315 20 -62 18 -97
12 -135 -21 -27 -24 -35 -27 -35 -15 0 9 12 29 26 43 24 24 30 25 95 21 60 -5
69 -3 64 10 -3 8 3 20 12 27 10 8 15 17 10 21 -4 4 -13 2 -19 -4 -16 -16 -21
-15 -46 7 -31 26 -27 32 16 29 l37 -3 -3 60 c-2 33 4 93 12 133 9 40 16 79 16
87 0 7 -33 27 -74 44 -80 33 -114 40 -82 16z m286 -605 c12 -7 15 -31 15 -107
0 -54 -4 -107 -9 -118 -8 -19 -9 -19 -16 5 -5 14 -8 43 -9 65 -1 22 -10 64
-21 93 -11 29 -18 57 -15 63 8 12 36 11 55 -1z"/>
<path d="M4820 6992 c0 -12 7 -25 15 -29 24 -9 25 0 5 27 l-20 25 0 -23z"/>
<path d="M4876 6964 c-20 -19 -20 -43 -1 -68 8 -11 15 -28 15 -39 0 -10 5 -15
10 -12 6 3 10 24 10 46 0 21 4 39 9 39 17 0 51 -52 51 -77 0 -14 4 -21 10 -18
15 9 12 62 -5 95 -25 48 -70 64 -99 34z"/>
<path d="M4045 6954 c50 -16 109 -16 158 -1 35 11 27 12 -80 13 -108 0 -115
-1 -78 -12z"/>
<path d="M4774 6954 c3 -9 -3 -31 -15 -50 -50 -81 2 -189 76 -156 30 14 40 50
27 99 l-10 38 -2 -45 c-1 -43 -2 -44 -12 -17 -7 19 -6 37 1 59 16 44 14 48
-16 48 -14 0 -23 3 -20 7 8 7 -11 33 -25 33 -6 0 -7 -7 -4 -16z"/>
<path d="M4123 6913 c-29 -3 -43 -9 -43 -19 0 -18 33 -18 70 1 28 14 40 27 23
23 -5 -1 -27 -3 -50 -5z"/>
<path d="M4070 6821 c0 -16 -5 -42 -11 -58 -7 -19 -7 -29 0 -31 16 -5 13 -54
-4 -78 -8 -12 -12 -24 -9 -27 8 -7 54 14 54 25 0 4 5 8 10 8 30 0 -11 -90 -51
-114 -16 -9 -29 -23 -29 -31 0 -22 -38 -52 -75 -59 -40 -8 -96 -68 -69 -74 8
-2 13 -11 10 -20 -2 -9 -7 -27 -11 -39 -3 -13 -3 -23 2 -23 4 0 8 -28 8 -62 1
-107 61 -200 155 -243 22 -10 40 -22 40 -28 0 -8 -13 -7 -75 9 -36 9 25 -35
65 -47 29 -9 43 -8 73 5 20 8 37 20 37 26 0 6 -14 23 -31 38 -18 14 -40 44
-50 67 -22 48 -25 134 -5 161 17 22 21 15 29 -48 12 -82 67 -163 67 -97 0 32
16 21 29 -21 13 -44 29 -59 42 -39 6 11 14 8 37 -15 l30 -28 7 43 7 43 20 -35
19 -34 -6 38 c-3 21 -8 46 -11 55 -3 9 2 6 10 -8 l15 -25 0 30 c0 17 -6 48
-14 70 -18 50 -18 50 0 35 18 -15 19 -3 5 36 -16 42 -4 40 20 -3 20 -36 21
-36 15 -8 -3 17 -17 52 -30 80 -27 55 -25 67 5 40 33 -30 33 -11 0 30 -16 21
-30 40 -30 42 0 6 21 -7 44 -26 23 -19 17 -5 -20 44 -26 35 -41 85 -26 85 6 0
25 -12 43 -27 l34 -28 -23 32 c-13 18 -29 36 -36 40 -7 5 -23 22 -35 39 -21
29 -22 35 -11 70 7 22 18 45 24 53 9 12 6 13 -16 8 -15 -4 -55 -10 -88 -14
-77 -8 -87 10 -41 68 26 32 29 40 17 45 -11 4 -13 11 -6 23 8 16 4 18 -38 17
-26 -1 -64 3 -84 7 -37 8 -38 7 -38 -22z"/>
<path d="M6308 6782 c-15 -10 -44 -34 -66 -54 -22 -20 -43 -33 -48 -28 -9 8
-403 -26 -413 -36 -3 -3 0 -14 7 -25 12 -18 11 -19 -7 -10 -10 6 -22 16 -24
23 -3 7 -6 8 -6 3 -1 -6 11 -26 27 -44 26 -32 29 -32 112 -34 93 -2 285 30
335 56 17 9 50 21 75 27 93 25 99 28 58 29 -64 2 -42 29 25 33 22 1 17 3 -18
7 l-50 6 35 23 c19 12 28 22 20 22 -8 -1 -24 -7 -34 -15 -33 -25 -43 -16 -13
10 33 29 24 33 -15 7z"/>
<path d="M3991 6720 c0 -29 1 -32 10 -17 7 11 7 23 0 35 -9 14 -10 11 -10 -18z"/>
<path d="M3330 6706 c-24 -23 -131 -74 -185 -87 -66 -17 -84 -34 -26 -25 l44
7 -37 -41 c-41 -46 -45 -83 -10 -88 20 -3 224 124 240 149 8 14 -77 -30 -146
-75 -60 -40 -70 -43 -70 -22 0 18 70 82 147 134 60 41 83 62 66 62 -5 0 -15
-6 -23 -14z"/>
<path d="M4020 6669 c0 -6 -9 -24 -21 -41 -26 -35 -15 -53 12 -19 17 21 27 71
14 71 -3 0 -5 -5 -5 -11z"/>
<path d="M3928 6597 c-29 -11 -37 -27 -15 -27 8 0 22 9 32 20 10 11 16 20 14
19 -2 -1 -16 -6 -31 -12z"/>
<path d="M3973 6563 c-29 -3 -43 -9 -43 -19 0 -21 59 -18 95 6 24 16 26 20 10
18 -11 -1 -39 -3 -62 -5z"/>
<path d="M4436 6546 c3 -9 11 -16 16 -16 13 0 5 23 -10 28 -7 2 -10 -2 -6 -12z"/>
<path d="M4415 6520 c3 -5 8 -10 11 -10 2 0 4 5 4 10 0 6 -5 10 -11 10 -5 0
-7 -4 -4 -10z"/>
<path d="M3197 6482 c-15 -16 -27 -35 -27 -43 1 -10 5 -8 16 6 8 11 21 28 30
38 25 30 10 29 -19 -1z"/>
<path d="M3951 6501 c-14 -4 -26 -12 -29 -19 -6 -19 33 -14 59 8 25 20 16 24
-30 11z"/>
<path d="M3820 6465 c-13 -14 -20 -25 -16 -25 10 0 86 40 86 45 0 16 -50 1
-70 -20z"/>
<path d="M4633 6444 c-53 -26 -77 -76 -77 -159 -1 -38 3 -82 7 -96 6 -23 -1
-35 -53 -88 -33 -35 -60 -67 -60 -73 0 -16 12 -7 77 62 61 65 62 66 53 105
-14 58 -12 131 4 169 17 41 41 60 26 21 -13 -33 -13 -115 -1 -115 5 0 13 10
16 21 12 36 84 107 121 119 47 16 56 5 12 -13 -43 -18 -84 -67 -97 -114 -13
-46 -7 -52 22 -25 37 35 94 54 140 46 l41 -6 -57 -18 c-91 -28 -168 -100 -167
-155 1 -16 4 -14 18 11 43 78 109 127 191 140 50 8 52 16 8 32 -44 16 -90 15
-132 -2 -77 -33 -14 51 67 89 51 24 47 35 -13 35 -45 0 -91 -23 -127 -65 -18
-20 -36 -35 -38 -32 -10 10 15 80 37 103 26 28 25 29 -18 8z"/>
<path d="M4451 6384 c30 -59 38 -101 17 -88 -8 5 -9 0 -5 -17 4 -13 7 -30 7
-36 0 -7 5 -13 10 -13 15 0 12 106 -4 143 -7 18 -22 40 -33 50 -17 14 -15 8 8
-39z"/>
<path d="M3751 6361 c-22 -22 -61 -77 -87 -122 -26 -45 -62 -97 -81 -115 -30
-30 -40 -34 -87 -34 -39 0 -74 9 -127 33 -72 31 -77 32 -214 31 -120 0 -146
-3 -185 -21 -73 -34 -121 -91 -145 -173 -5 -19 0 -14 24 17 82 112 215 137
435 83 110 -28 120 -25 53 17 -31 20 -55 38 -53 40 2 2 36 -12 75 -32 122 -61
172 -58 258 18 32 28 35 29 23 8 -50 -95 -173 -124 -329 -79 -88 25 -195 29
-262 9 -54 -15 -113 -60 -134 -102 -21 -40 -6 -36 29 7 33 42 116 84 166 84
19 0 73 -9 120 -21 47 -11 114 -24 150 -29 59 -7 54 -8 -47 -7 -78 1 -116 -2
-125 -11 -10 -10 -6 -11 17 -7 33 7 111 -15 108 -29 -1 -6 -23 -15 -48 -22
-71 -17 -74 -30 -8 -31 32 0 81 -4 108 -8 30 -4 67 -3 90 4 51 14 58 5 12 -14
-22 -9 -68 -15 -119 -15 -113 0 -154 -8 -182 -37 -25 -25 -40 -91 -25 -107 5
-6 9 1 9 17 0 15 12 40 28 58 28 31 30 32 153 39 77 5 139 14 163 24 38 16 39
16 23 -2 -23 -25 -101 -59 -167 -72 -61 -12 -77 -22 -103 -63 -26 -40 -13 -46
18 -8 19 21 44 36 83 47 129 35 155 47 198 88 24 24 44 38 44 33 0 -21 -73
-77 -162 -125 -91 -49 -134 -85 -157 -129 -15 -29 -13 -101 3 -138 13 -29 14
-27 9 26 -10 107 27 159 137 194 153 49 221 98 264 188 38 80 41 108 5 49 -32
-54 -54 -67 -25 -15 25 45 46 104 46 129 0 42 18 34 25 -11 9 -64 40 -151 65
-182 11 -14 18 -29 14 -32 -7 -8 -42 36 -60 77 -8 18 -18 30 -23 28 -33 -21
-53 -150 -31 -201 7 -15 9 -10 10 25 l1 45 14 -43 c19 -61 61 -111 112 -134
58 -26 64 -18 13 16 -41 27 -82 94 -93 153 -6 31 -5 30 57 -31 81 -81 146
-109 260 -110 47 -1 81 3 83 9 2 6 -27 26 -64 44 -38 18 -81 44 -98 58 -32 26
-34 26 38 7 12 -3 0 8 -27 26 -46 30 -60 53 -18 31 34 -18 44 -13 27 13 l-15
23 50 -5 c58 -5 66 8 15 27 -59 21 -141 105 -180 184 -35 72 -64 183 -65 245
0 22 -4 31 -11 26 -8 -4 -9 4 -5 27 l7 34 -21 -35 -21 -35 6 43 c3 23 3 42 0
42 -3 0 -23 -18 -44 -39z m35 -89 c8 16 11 14 21 -11 9 -24 8 -28 -3 -24 -8 3
-16 -10 -24 -39 -18 -69 -18 -68 -18 22 0 50 3 75 7 60 6 -22 8 -23 17 -8z
m-66 -83 c-14 -112 -28 -156 -61 -187 -35 -33 -104 -60 -166 -65 -26 -3 -39
-2 -28 0 39 10 119 45 147 64 34 24 64 80 73 134 10 57 35 148 41 143 2 -3 -1
-43 -6 -89z m109 -70 c13 -33 29 -63 36 -66 8 -2 25 -24 39 -48 14 -23 49 -63
77 -89 28 -25 48 -46 45 -46 -20 0 -67 34 -104 74 -23 25 -42 42 -42 38 0 -11
29 -52 64 -91 28 -31 28 -33 6 -19 -35 21 -97 105 -114 153 -20 54 -20 17 0
-58 23 -88 56 -147 116 -207 32 -32 43 -47 28 -40 -13 7 -47 36 -76 64 -59 60
-92 135 -103 236 -6 57 -4 160 4 160 1 0 12 -27 24 -61z"/>
<path d="M3672 6338 c-23 -16 -40 -34 -37 -39 9 -14 54 15 84 54 20 25 2 20
-47 -15z"/>
<path d="M3607 6343 c-4 -3 -7 -13 -7 -21 0 -12 3 -12 15 -2 8 7 15 16 15 21
0 11 -14 12 -23 2z"/>
<path d="M4915 6252 c-22 -11 -62 -42 -88 -71 -29 -30 -57 -51 -69 -51 -28 0
-88 -22 -88 -32 0 -12 22 -9 50 7 14 8 36 14 50 15 17 0 42 17 75 50 75 76
145 100 191 65 18 -13 16 -14 -27 -15 -38 0 -53 -6 -78 -29 -41 -38 -39 -51 8
-51 43 0 104 -35 109 -63 3 -15 -2 -13 -34 8 -30 20 -49 25 -100 25 -35 0 -64
-2 -64 -5 0 -3 7 -16 15 -29 19 -28 23 -92 7 -108 -9 -9 -12 -3 -12 24 0 44
-28 68 -77 68 -28 0 -34 -4 -42 -32 l-9 -33 -7 33 c-4 17 -9 32 -11 32 -2 0
-27 -11 -56 -24 -29 -13 -75 -33 -102 -45 -27 -12 -47 -24 -44 -27 3 -3 48 13
99 35 l94 39 13 -24 c17 -32 40 -31 40 1 0 33 6 39 36 31 40 -10 58 -35 54
-73 -5 -39 13 -44 36 -11 18 26 20 65 6 103 -7 19 -6 27 3 31 24 9 111 -17
145 -43 l34 -26 -7 34 c-10 47 -41 78 -92 91 -24 6 -43 13 -43 17 0 17 62 41
106 41 l49 0 -26 26 c-35 34 -92 41 -144 16z"/>
<path d="M4433 6245 c16 -56 19 -78 13 -111 -6 -27 -10 -33 -20 -25 -9 8 -11
-5 -9 -57 2 -46 0 -61 -6 -47 -7 14 -9 2 -9 -42 1 -35 2 -63 4 -63 34 0 66
323 35 352 -11 11 -12 10 -8 -7z"/>
<path d="M3880 6159 c0 -25 67 -153 91 -175 l22 -19 -13 24 c-11 21 -10 23 4
18 23 -9 20 -2 -14 30 -16 15 -43 53 -59 83 -17 30 -31 48 -31 39z"/>
<path d="M4111 6152 c-1 -7 4 -33 10 -58 14 -53 89 -137 99 -109 5 13 11 8 30
-21 14 -21 34 -39 45 -40 11 -1 29 -5 39 -9 18 -8 18 -7 -2 13 -11 11 -28 32
-38 47 -12 19 -19 23 -25 14 -6 -10 -13 -6 -28 12 -11 13 -20 27 -21 32 0 15
-20 6 -20 -10 0 -15 -1 -15 -19 1 -10 9 -25 33 -33 54 -33 80 -37 87 -37 74z"/>
<path d="M4595 6127 c-5 -7 -41 -47 -78 -90 -38 -42 -67 -82 -65 -88 2 -6 37
28 77 75 41 48 80 85 86 82 8 -3 11 2 8 15 -6 22 -14 24 -28 6z"/>
<path d="M4583 6058 c-13 -6 -23 -15 -23 -20 0 -12 11 -9 50 12 26 14 30 19
15 19 -11 0 -30 -5 -42 -11z"/>
<path d="M3083 5970 c-24 -10 -43 -26 -43 -35 0 -21 6 -19 48 12 69 51 68 57
-5 23z"/>
<path d="M3090 5903 c-45 -19 -77 -49 -100 -93 -18 -35 -37 -130 -27 -130 4 0
15 21 26 46 42 94 119 162 208 183 38 9 37 9 -17 9 -30 0 -71 -6 -90 -15z"/>
<path d="M3680 5777 c0 -7 -33 -45 -74 -85 -75 -74 -90 -102 -77 -151 7 -24 8
-22 15 17 5 36 19 57 76 117 40 42 70 83 70 94 0 12 -2 21 -5 21 -3 0 -5 -6
-5 -13z"/>
<path d="M3480 5673 c-30 -16 -63 -40 -73 -54 -20 -28 -41 -113 -26 -103 5 3
9 11 9 17 0 17 49 87 60 87 6 0 10 -15 10 -32 0 -51 30 -98 80 -127 l45 -26
-42 49 c-51 58 -62 100 -38 147 10 19 24 42 33 52 21 24 4 21 -58 -10z"/>
<path d="M4640 5410 l-85 -6 103 -2 c67 -1 101 2 97 8 -3 6 -12 9 -18 8 -7 -1
-50 -5 -97 -8z"/>
<path d="M4161 5306 c2 -2 165 -7 362 -11 256 -5 357 -4 357 4 0 8 -107 11
-362 11 -199 0 -359 -2 -357 -4z"/>
<path d="M6610 5240 c0 -20 4 -20 1103 -18 972 3 1102 5 1102 18 0 13 -130 15
-1102 18 -1099 2 -1103 2 -1103 -18z"/>
<path d="M790 5230 c0 -20 7 -20 1175 -20 1168 0 1175 0 1175 20 0 20 -7 20
-1175 20 -1168 0 -1175 0 -1175 -20z"/>
<path d="M4663 5223 c42 -2 112 -2 155 0 42 1 7 3 -78 3 -85 0 -120 -2 -77 -3z"/>
<path d="M5802 5023 c48 -2 129 -2 180 0 51 1 12 3 -87 3 -99 0 -141 -2 -93
-3z"/>
<path d="M2803 4990 c-17 -6 -43 -24 -57 -40 -37 -45 -41 -86 -16 -156 41
-110 38 -122 -34 -155 -36 -16 -37 -18 -18 -28 26 -14 87 -14 113 -1 10 6 19
9 19 6 0 -13 -79 -183 -157 -341 -104 -207 -117 -243 -110 -297 9 -70 53 -115
127 -128 40 -7 40 -7 40 24 0 62 52 202 136 367 23 46 25 57 15 88 l-11 36 38
-42 c59 -67 111 -88 213 -87 77 1 92 4 148 34 77 41 149 119 193 207 29 59 33
79 36 163 3 79 0 105 -18 154 -30 78 -83 131 -145 144 -69 15 -99 0 -182 -84
-40 -41 -75 -74 -78 -74 -3 0 -5 13 -5 28 0 45 -48 131 -89 158 -42 27 -111
38 -158 24z m65 -102 c7 -7 12 -26 12 -42 0 -45 -26 -134 -33 -116 -34 84 -45
148 -30 163 10 11 38 8 51 -5z m412 -83 c20 -24 7 -158 -24 -238 -14 -37 -40
-88 -57 -112 -44 -62 -124 -115 -171 -115 -44 0 -108 28 -108 47 0 8 14 42 31
76 126 252 275 407 329 342z"/>
<path d="M2058 4906 c-7 -103 -14 -118 -38 -78 -24 39 -63 65 -128 87 -46 15
-80 17 -220 12 -92 -2 -192 -10 -223 -18 -54 -12 -57 -12 -90 14 -19 14 -46
30 -62 36 l-27 11 0 -51 c0 -47 -2 -51 -32 -61 -140 -49 -256 -139 -277 -214
-12 -45 -6 -64 45 -140 47 -70 54 -106 27 -129 -10 -7 -29 -23 -43 -34 l-25
-20 43 -1 c23 0 42 -4 42 -9 0 -5 -21 -52 -46 -105 -73 -151 -70 -227 9 -261
l32 -14 -30 0 c-16 0 -49 8 -72 19 -48 21 -63 55 -45 102 9 24 8 28 -8 28 -24
0 -67 -36 -85 -70 -8 -16 -15 -50 -15 -76 0 -40 5 -51 38 -84 24 -25 57 -44
92 -55 176 -53 538 -6 676 88 73 49 106 133 71 181 -12 17 -15 16 -48 -16 -54
-55 -231 -105 -438 -124 l-74 -6 7 41 c6 41 74 209 126 312 26 51 33 57 67 62
21 3 81 12 133 20 63 10 110 12 140 7 25 -5 48 -5 53 -1 4 4 -3 27 -16 51 -33
62 -81 85 -179 85 -43 0 -78 1 -78 3 0 2 13 34 29 70 16 37 35 86 41 109 14
47 13 46 145 64 104 13 215 7 267 -14 41 -17 72 -65 57 -88 -27 -43 1 -51 55
-14 20 13 36 23 36 21 0 -13 -80 -185 -153 -331 -114 -227 -125 -270 -88 -352
26 -55 67 -77 137 -71 100 8 199 96 211 186 5 38 3 42 -15 42 -15 0 -27 -12
-41 -42 -23 -50 -35 -65 -75 -96 -58 -44 -70 -19 -39 79 10 30 71 159 136 287
129 255 163 334 173 410 13 101 -49 194 -152 226 -20 6 -21 2 -26 -78z m-798
-242 c-53 -24 -56 -27 -85 -100 -28 -70 -55 -112 -55 -86 0 6 -14 32 -32 56
-44 63 -33 74 116 127 99 35 131 37 56 3z"/>
<path d="M5790 4960 c-158 -5 -146 -6 128 -8 196 -1 302 2 302 8 0 10 -110 10
-430 0z"/>
<path d="M7147 4853 c-11 -130 -83 -319 -245 -642 l-97 -195 -90 -22 c-138
-34 -225 -78 -251 -125 -12 -23 0 -91 24 -134 21 -40 80 -86 138 -108 54 -20
75 -22 259 -21 190 0 257 6 680 56 139 16 495 16 565 0 30 -7 71 -24 91 -37
20 -13 40 -21 43 -18 12 13 6 116 -10 146 -29 60 -131 116 -211 117 -17 0 -35
5 -38 10 -3 6 3 10 14 10 32 0 102 30 151 66 l46 33 27 -34 c32 -40 105 -77
152 -77 69 0 148 64 216 175 26 41 45 59 80 75 60 28 96 57 115 94 25 49 4 56
-55 19 -28 -17 -51 -27 -51 -23 0 4 9 31 20 60 22 59 26 128 8 167 -6 14 -26
35 -44 46 -37 22 -130 49 -173 49 -87 0 -243 -215 -289 -398 -23 -92 -47 -123
-119 -159 -75 -36 -177 -39 -221 -6 -24 18 -27 27 -27 75 0 47 8 67 58 157 64
114 66 116 123 177 47 50 79 56 96 20 14 -33 -4 -108 -39 -159 -14 -20 -23
-40 -20 -44 13 -13 92 20 123 51 42 42 52 92 30 150 -54 142 -244 156 -372 27
-22 -22 -58 -70 -79 -107 -23 -39 -53 -75 -74 -89 -20 -12 -38 -21 -39 -20 -2
2 6 30 17 62 39 111 22 186 -50 221 -56 26 -150 46 -181 39 -13 -4 -42 -23
-64 -44 -120 -112 -214 -306 -214 -440 0 -62 1 -65 44 -108 31 -30 60 -48 97
-59 52 -16 54 -16 106 10 56 27 106 79 155 160 22 36 42 56 73 70 l42 19 0
-68 c0 -59 4 -74 29 -110 17 -24 48 -52 74 -64 27 -14 37 -23 25 -23 -47 0
-374 -42 -540 -69 -99 -16 -205 -32 -235 -36 -30 -3 -67 -8 -82 -11 -35 -7
-36 6 -4 95 31 85 58 145 205 443 146 299 162 339 162 418 1 49 -4 69 -25 100
-29 45 -80 86 -117 95 -26 6 -26 6 -32 -62z m482 -436 c16 -41 -30 -209 -64
-237 -35 -29 -115 23 -115 74 0 26 50 108 93 154 37 38 74 42 86 9z m1039 -30
c3 -53 -28 -162 -57 -198 -14 -17 -23 -20 -49 -14 -34 7 -72 47 -72 75 0 57
111 194 152 188 20 -3 23 -9 26 -51z m-1250 -252 c15 -14 44 -28 64 -31 34 -6
36 -8 27 -27 -22 -40 -115 -127 -137 -127 -22 0 -42 26 -42 57 0 28 43 153 52
153 5 0 21 -11 36 -25z m1042 0 c14 -15 40 -28 62 -31 34 -6 36 -8 27 -27 -22
-40 -115 -127 -137 -127 -22 0 -42 26 -42 57 0 32 43 153 55 153 6 0 22 -11
35 -25z m-1678 -258 c3 -34 13 -66 27 -85 l22 -32 -67 0 c-37 0 -96 5 -131 11
-53 9 -63 14 -63 31 0 33 62 82 131 106 35 12 67 21 70 22 4 0 9 -24 11 -53z"/>
<path d="M3920 4787 c0 -22 -80 -95 -133 -122 -58 -29 -103 -32 -128 -9 -27
25 -42 8 -23 -25 53 -89 202 -90 295 -2 33 32 39 44 39 79 0 23 -5 53 -12 67
-12 26 -38 35 -38 12z"/>
<path d="M4238 4713 c-25 -29 -48 -80 -48 -107 0 -33 97 -109 132 -104 29 4
73 86 63 118 -9 30 -53 79 -86 95 -36 19 -43 19 -61 -2z"/>
<path d="M4990 4554 c0 -4 5 -24 11 -44 15 -48 -4 -108 -73 -240 -82 -153 -89
-171 -95 -209 -6 -41 -26 -67 -65 -87 -36 -18 -58 -18 -58 2 0 9 18 52 40 96
61 123 54 197 -21 228 -36 15 -27 23 -131 -111 -77 -100 -119 -145 -145 -158
-18 -9 -23 -9 -24 1 -6 66 76 215 158 287 72 65 131 80 155 41 18 -28 23 -25
38 20 12 37 12 43 -6 68 -34 45 -101 74 -160 69 -71 -7 -119 -34 -190 -109
-81 -84 -125 -155 -162 -258 -16 -47 -39 -101 -51 -122 -20 -33 -71 -68 -100
-68 -18 0 -13 32 13 86 101 208 148 313 153 337 4 19 -2 37 -18 61 -26 39 -95
87 -113 80 -7 -3 -28 -37 -48 -77 -35 -69 -118 -261 -118 -271 0 -2 -13 -33
-29 -68 -16 -35 -32 -73 -36 -86 -11 -39 -94 -79 -109 -53 -3 4 13 45 36 89
44 88 58 160 39 196 -13 23 -60 56 -80 56 -5 0 -38 -37 -73 -82 -83 -111 -167
-198 -190 -198 -10 0 -18 4 -18 9 0 16 44 115 73 166 79 137 208 215 251 153
18 -26 21 -24 34 22 15 59 -12 100 -85 126 -87 31 -174 2 -262 -86 -109 -112
-181 -253 -181 -357 0 -46 6 -65 31 -105 35 -54 55 -68 94 -68 28 0 56 24 129
110 36 43 37 44 33 16 -14 -85 34 -126 148 -126 87 0 76 -15 -17 -23 -105 -9
-176 -33 -215 -72 -55 -55 -42 -130 32 -173 35 -20 51 -22 116 -19 84 4 131
25 201 90 40 37 39 44 -13 67 -23 10 -22 10 6 5 48 -9 188 -79 228 -114 40
-36 49 -35 67 9 28 69 -8 124 -114 171 -34 15 -46 25 -42 36 3 8 6 17 6 19 0
2 16 4 35 4 42 0 120 38 154 74 29 31 38 32 46 7 12 -40 61 -81 95 -81 33 0
66 28 147 126 l32 39 -8 -31 c-12 -43 -3 -78 26 -106 22 -20 34 -23 112 -23
79 0 91 3 130 28 38 25 45 27 59 14 28 -24 79 -47 107 -47 24 0 25 3 25 53 0
90 72 210 228 377 38 41 73 72 77 69 11 -12 -14 -83 -47 -134 -22 -33 -44 -53
-70 -63 -21 -8 -37 -20 -35 -25 6 -19 75 -48 114 -49 109 -1 232 134 233 255
0 78 -39 133 -102 143 -44 8 -99 -33 -183 -133 -32 -40 -61 -70 -63 -68 -2 2
6 25 18 51 34 78 9 136 -75 175 -38 18 -105 26 -105 13z m-1223 -770 c20 -6
21 -8 9 -26 -25 -35 -79 -68 -112 -68 -33 0 -64 21 -64 44 0 38 100 68 167 50z"/>
<path d="M5698 4515 c-81 -55 -182 -219 -223 -361 -30 -104 -25 -148 19 -201
33 -39 110 -75 158 -75 67 1 155 78 219 191 15 28 34 44 63 55 55 21 112 69
124 106 16 43 -1 46 -58 11 -28 -17 -50 -27 -50 -22 0 4 9 34 20 66 34 99 23
162 -34 205 -23 17 -138 49 -176 50 -14 0 -42 -11 -62 -25z m219 -155 c-3 -43
-14 -85 -33 -125 -28 -57 -31 -60 -64 -58 -40 2 -80 40 -80 77 0 26 65 130
101 162 59 52 83 34 76 -56z m-179 -244 c17 -9 38 -16 47 -16 8 0 15 -4 15 -9
0 -14 -76 -107 -102 -125 -75 -53 -100 32 -46 157 21 48 22 49 38 30 9 -11 30
-28 48 -37z"/>
<path d="M7844 3339 c-26 -9 -54 -46 -54 -70 0 -26 34 -62 71 -74 41 -14 54
-34 45 -69 -6 -24 -11 -27 -39 -24 -22 2 -35 10 -42 26 -12 27 -41 25 -37 -3
2 -11 15 -31 29 -43 33 -30 78 -24 111 14 43 49 21 101 -53 130 -44 16 -50 23
-45 54 5 37 56 40 72 5 12 -28 38 -34 38 -9 0 44 -54 79 -96 63z"/>
<path d="M1650 3205 c0 -128 1 -135 20 -135 17 0 20 7 20 49 l0 48 51 5 c64 6
93 33 93 84 0 56 -40 84 -121 84 l-63 0 0 -135z m128 89 c24 -17 29 -56 10
-72 -7 -5 -32 -12 -55 -14 l-43 -4 0 53 0 53 33 0 c18 0 43 -7 55 -16z"/>
<path d="M2078 3325 c-40 -22 -68 -75 -68 -130 0 -43 4 -52 39 -85 41 -39 86
-54 129 -43 127 30 154 200 42 258 -36 19 -107 19 -142 0z m148 -51 c68 -72
25 -173 -73 -174 -111 0 -152 142 -55 194 48 27 91 20 128 -20z"/>
<path d="M2480 3236 c0 -147 9 -163 95 -166 59 -3 65 -1 65 15 0 10 -15 15
-57 17 l-58 3 -5 115 c-4 99 -7 115 -22 118 -16 3 -18 -7 -18 -102z"/>
<path d="M2800 3222 c0 -141 5 -149 90 -153 45 -3 55 0 58 14 3 14 -5 17 -45
17 -27 0 -54 5 -61 12 -8 8 -12 49 -12 120 0 89 -3 108 -15 108 -12 0 -15 -20
-15 -118z"/>
<path d="M3139 3317 c-43 -29 -59 -60 -59 -116 0 -139 179 -189 257 -72 27 40
30 98 8 141 -35 68 -140 92 -206 47z m125 -17 c28 -10 66 -64 66 -93 0 -33
-30 -84 -56 -96 -86 -39 -176 24 -160 112 13 67 82 103 150 77z"/>
<path d="M3561 3314 c-12 -15 -21 -37 -21 -49 0 -26 34 -59 74 -72 38 -12 51
-33 42 -67 -6 -24 -11 -27 -39 -24 -22 2 -35 10 -42 26 -10 23 -35 26 -42 6
-7 -20 40 -64 74 -70 27 -5 37 -1 63 24 52 52 34 107 -45 138 -38 14 -45 21
-45 44 0 45 53 56 72 15 13 -30 38 -33 38 -5 0 58 -91 82 -129 34z"/>
<path d="M4273 3314 c-14 -21 -15 -31 -5 -56 10 -27 8 -33 -14 -54 -32 -33
-32 -77 1 -109 31 -32 89 -34 121 -4 l23 21 29 -21 c17 -11 33 -21 36 -21 15
0 4 29 -19 50 -30 28 -31 45 -5 88 24 39 24 42 5 42 -9 0 -25 -16 -37 -35 -19
-34 -21 -35 -39 -19 -18 16 -18 18 6 46 30 36 30 38 4 72 -29 36 -82 36 -106
0z m76 -13 c16 -10 7 -47 -13 -54 -8 -3 -22 3 -31 13 -28 31 7 64 44 41z m-6
-129 c25 -26 26 -29 11 -50 -20 -28 -58 -28 -78 0 -20 29 -20 34 4 58 26 26
31 25 63 -8z"/>
<path d="M5008 3334 c-5 -4 -8 -65 -8 -136 0 -121 1 -128 20 -128 17 0 20 7
20 49 l0 48 52 5 c87 9 125 76 74 134 -20 24 -33 28 -87 32 -35 2 -67 0 -71
-4z m124 -41 c21 -18 24 -53 6 -71 -7 -7 -31 -12 -55 -12 l-43 0 0 50 0 50 37
0 c20 0 45 -7 55 -17z"/>
<path d="M5410 3319 c-13 -23 -110 -241 -110 -246 0 -2 9 -3 20 -3 15 0 26 13
40 45 19 45 20 45 69 45 50 0 81 -17 81 -45 0 -7 9 -23 19 -36 17 -21 20 -22
26 -8 9 23 -96 263 -117 267 -9 2 -22 -7 -28 -19z m48 -81 l21 -48 -44 0 -44
0 21 50 c11 28 22 49 23 48 1 -2 12 -24 23 -50z"/>
<path d="M5750 3205 c0 -112 2 -135 15 -135 12 0 15 22 17 118 l3 117 33 3
c42 4 82 -21 82 -52 0 -29 -32 -58 -65 -58 -14 0 -25 -5 -25 -11 0 -19 79
-114 99 -120 28 -7 26 4 -9 48 -36 45 -37 52 -9 60 11 4 27 21 34 38 31 76
-16 127 -117 127 l-58 0 0 -135z"/>
<path d="M6130 3339 c0 -2 -1 -62 -2 -134 -1 -115 0 -130 15 -133 15 -3 17 10
17 117 l0 121 38 0 c42 0 82 -29 82 -59 0 -27 -32 -51 -68 -51 -18 0 -32 -3
-32 -6 0 -4 19 -33 43 -65 30 -42 48 -58 66 -59 23 0 22 1 -13 44 -39 49 -43
56 -23 56 8 0 23 10 35 23 28 30 28 84 1 117 -18 21 -31 25 -90 28 -38 3 -69
3 -69 1z"/>
<path d="M6500 3206 c0 -130 1 -136 20 -136 20 0 20 5 18 132 -3 117 -5 133
-20 136 -16 3 -18 -8 -18 -132z"/>
<path d="M6730 3226 c0 -142 8 -156 95 -156 41 0 55 4 55 14 0 11 -15 16 -52
18 l-53 3 -5 115 c-4 99 -7 115 -22 118 -16 3 -18 -7 -18 -112z"/>
<path d="M7040 3231 c0 -94 3 -112 21 -135 18 -23 28 -26 80 -26 46 0 59 3 59
15 0 11 -12 15 -48 15 -26 0 -53 5 -60 12 -8 8 -12 49 -12 120 0 101 -1 108
-20 108 -19 0 -20 -7 -20 -109z"/>
<path d="M7441 3258 c-66 -143 -81 -177 -81 -182 0 -4 9 -6 20 -6 13 0 25 14
39 45 l20 45 56 0 56 0 19 -45 c11 -25 26 -45 35 -45 22 0 20 9 -26 112 -22
51 -46 108 -52 126 -19 57 -43 43 -86 -50z m80 -23 l17 -45 -44 0 -43 0 16 38
c28 67 32 68 54 7z"/>
<path d="M1654 2821 c-31 -31 -44 -31 3147 -31 2806 0 3150 2 3147 15 -3 14
-350 16 -3146 18 -1729 1 -3146 0 -3148 -2z"/>
</g>
</svg>
