<?xml version="1.0" standalone="no"?>
<!DOCTYPE svg PUBLIC "-//W3C//DTD SVG 20010904//EN"
 "http://www.w3.org/TR/2001/REC-SVG-20010904/DTD/svg10.dtd">
<svg version="1.0" xmlns="http://www.w3.org/2000/svg"
 width="612.000000pt" height="408.000000pt" viewBox="0 0 612.000000 408.000000"
 preserveAspectRatio="xMidYMid meet">

<g transform="translate(0.000000,408.000000) scale(0.100000,-0.100000)"
fill="#000000" stroke="none">
<path d="M3751 3971 c-12 -12 -25 -21 -31 -21 -5 0 -13 -6 -17 -14 -4 -8 -28
-21 -53 -30 l-45 -16 40 1 c78 2 91 0 75 -12 -11 -7 -3 -8 29 -3 31 4 42 3 37
-5 -9 -14 -83 -15 -88 -1 -2 6 -14 6 -33 1 -26 -8 -27 -9 -7 -10 33 -1 53 -23
36 -39 -7 -7 -20 -12 -29 -12 -19 0 -19 -14 1 -34 9 -9 11 -16 4 -16 -6 0 -8
-4 -5 -10 3 -5 1 -10 -5 -10 -6 0 -8 -4 -5 -10 3 -5 -3 -10 -14 -10 -12 0 -21
-3 -21 -7 1 -21 22 -36 75 -52 54 -17 56 -19 30 -25 -19 -5 -31 -3 -36 6 -4 7
-12 9 -16 4 -4 -5 -2 -11 5 -13 22 -8 13 -21 -19 -28 -19 -4 -33 -15 -37 -27
-3 -13 -11 -18 -23 -15 -12 3 -19 0 -19 -9 0 -8 -3 -13 -7 -13 -5 1 -19 0 -33
-1 l-25 -2 25 -8 c23 -7 23 -8 -10 -11 -19 -1 -41 -2 -47 -2 -7 1 -13 -3 -13
-9 0 -5 -6 -8 -12 -7 -7 1 -22 0 -33 -1 -11 -2 4 -6 34 -9 51 -6 54 -7 38 -23
-22 -21 -21 -28 1 -28 10 0 25 -8 33 -19 16 -17 14 -18 -40 -18 -49 -1 -52 0
-21 7 l35 7 -32 2 c-39 1 -53 -17 -27 -36 10 -8 19 -17 19 -21 0 -14 45 -52
63 -53 9 0 35 -7 57 -14 37 -13 38 -14 10 -13 -72 2 -126 -3 -120 -11 7 -13
-107 -1 -120 12 -7 6 -3 8 13 4 14 -3 22 -1 22 8 0 7 6 16 13 19 6 3 -2 3 -19
0 -21 -3 -38 1 -54 14 l-24 19 22 7 c12 4 27 17 33 28 11 20 9 21 -25 15 -20
-3 -34 -2 -31 3 3 5 -2 13 -10 17 -13 8 -12 11 10 23 l26 14 -28 12 c-16 7
-21 13 -12 13 8 1 31 15 49 31 18 17 37 30 41 30 13 0 20 33 7 41 -9 6 -9 14
2 36 8 15 15 36 16 47 1 10 14 29 30 42 23 18 25 23 12 24 -22 0 -24 18 -3 26
8 4 15 18 15 34 0 16 6 30 13 33 6 2 9 7 5 11 -10 12 -87 -78 -113 -131 -12
-26 -26 -64 -29 -83 l-6 -35 -252 1 c-150 0 -269 5 -293 12 -69 19 -246 33
-594 47 -185 7 -352 18 -371 24 -47 13 -356 44 -382 38 -11 -3 -63 1 -116 8
-299 43 -523 58 -657 43 -33 -3 -85 -2 -115 3 -30 6 -166 12 -302 14 l-248 3
0 -93 c0 -104 1 -105 73 -105 23 0 51 -7 61 -15 11 -8 34 -15 52 -15 17 0 37
-6 43 -14 6 -7 30 -16 54 -20 103 -15 117 -19 117 -28 0 -5 -4 -7 -9 -3 -6 3
-29 2 -53 -2 l-43 -7 70 -12 c39 -7 84 -13 101 -13 17 -1 53 -8 80 -16 38 -11
52 -21 62 -44 14 -33 56 -50 122 -52 19 0 44 -4 55 -8 16 -7 13 -9 -18 -15
-20 -4 -41 -5 -45 -2 -12 7 -155 -14 -166 -24 -5 -5 0 -7 12 -3 12 3 28 -1 36
-9 14 -14 45 -19 356 -54 173 -20 532 -25 610 -10 54 11 152 11 282 1 62 -5
68 -3 87 20 20 26 125 75 160 75 11 0 25 -9 31 -20 6 -11 17 -20 25 -20 8 0
15 -7 15 -15 0 -8 -7 -15 -15 -15 -18 0 -20 -17 -3 -22 21 -7 17 -39 -6 -48
-28 -10 -35 -26 -43 -102 -5 -50 -11 -63 -40 -88 -38 -34 -76 -38 -205 -20
-108 15 -859 29 -986 18 -87 -7 -113 -13 -142 -33 -64 -44 -79 -46 -344 -40
-138 2 -281 8 -318 11 l-68 7 0 -43 0 -43 48 9 c53 9 211 9 248 0 13 -4 28
-15 34 -26 8 -16 5 -25 -17 -49 -27 -29 -33 -31 -115 -33 -75 -3 -90 0 -116
19 -16 12 -38 20 -48 18 -11 -2 -22 -4 -26 -4 -14 -2 -9 -246 4 -259 9 -9 9
-15 0 -24 -9 -9 -12 -79 -12 -255 l0 -242 107 0 c172 -1 345 -11 380 -22 18
-6 37 -8 42 -5 11 7 81 -24 81 -36 0 -10 -27 -16 -145 -29 -86 -10 -331 -26
-432 -28 l-33 -1 0 -199 c0 -150 3 -201 13 -204 9 -4 9 -6 0 -6 -7 -1 -13 -8
-13 -17 0 -11 5 -14 16 -10 9 3 63 6 122 6 94 0 104 2 86 14 -24 18 -52 8 296
106 492 138 480 136 480 88 0 -31 -44 -47 -347 -134 -133 -38 -241 -69 -240
-70 4 -3 383 -16 427 -14 52 1 108 32 116 64 7 30 40 48 87 48 22 -1 50 6 61
14 11 8 30 14 42 14 17 0 23 8 29 37 4 22 20 50 41 71 19 19 34 43 34 54 0 11
10 36 22 56 21 34 21 35 2 69 -23 44 -50 55 -146 57 -43 1 -81 5 -84 9 -12 12
44 56 79 62 20 4 57 -2 100 -15 63 -20 70 -20 86 -6 10 9 24 16 33 16 24 0 58
44 58 76 0 16 8 48 18 72 l17 43 55 -5 c53 -5 54 -5 25 9 -41 19 -81 19 -89
-1 -5 -14 -9 -14 -22 -3 -20 17 -44 63 -44 87 0 34 39 72 81 78 21 4 39 10 39
15 0 15 37 10 51 -8 8 -9 39 -32 69 -51 30 -19 72 -52 92 -73 l38 -38 25 24
c13 14 34 25 45 25 27 0 70 -43 70 -70 0 -34 18 -59 37 -54 10 3 45 -12 79
-34 52 -34 67 -39 102 -35 22 3 49 0 61 -6 17 -10 23 -6 44 21 13 18 32 50 43
72 19 38 129 156 145 156 5 0 30 33 55 73 26 39 71 98 100 129 30 31 54 62 54
68 0 6 33 44 73 85 39 40 83 87 96 104 13 18 36 34 51 38 23 4 29 12 35 41 14
75 68 203 98 233 30 30 32 31 116 27 77 -3 90 0 126 22 23 14 55 24 77 25 36
0 38 2 38 33 0 19 5 32 13 32 8 0 7 4 -3 10 -11 7 -11 10 -2 10 7 0 10 5 7 10
-11 18 12 36 49 38 43 3 80 -31 71 -66 -7 -30 9 -35 78 -24 36 6 57 5 57 -1 0
-5 13 -7 30 -5 21 3 31 0 35 -11 3 -9 23 -26 44 -38 40 -23 92 -25 188 -7 36
7 76 -3 68 -17 -4 -5 2 -9 11 -9 24 0 54 -29 47 -46 -7 -18 2 -18 21 2 19 18
43 9 27 -10 -7 -9 -7 -16 1 -24 9 -9 3 -15 -23 -26 -19 -9 -26 -15 -16 -16 33
0 18 -29 -20 -36 -35 -7 -36 -8 -13 -14 14 -3 25 -13 25 -23 0 -9 6 -22 13
-29 20 -20 14 -26 -30 -33 -24 -4 -56 -15 -73 -24 -35 -20 -114 -46 -168 -56
-22 -5 -41 -14 -44 -24 -3 -9 -8 -25 -13 -36 -17 -41 -19 -55 -10 -60 6 -4 10
0 10 8 0 13 6 13 37 4 26 -8 38 -8 40 -1 2 7 23 5 60 -7 81 -27 144 -25 170 5
12 13 19 27 16 30 -6 5 48 11 69 7 5 0 7 4 5 10 -1 6 3 13 9 16 12 4 28 -42
19 -57 -3 -4 0 -10 7 -12 8 -3 5 -13 -10 -33 -12 -15 -22 -34 -22 -41 0 -8 -4
-14 -10 -14 -5 0 -13 -18 -16 -41 -4 -23 -14 -43 -22 -47 -9 -3 -23 -13 -33
-21 -47 -42 -58 -44 -114 -21 -40 16 -55 19 -55 10 0 -5 -7 -7 -15 -4 -8 4
-15 16 -15 28 0 27 -45 55 -61 39 -8 -8 -8 -13 0 -17 23 -14 11 -55 -22 -80
-19 -15 -38 -26 -44 -26 -5 0 -20 -11 -33 -25 -42 -44 -67 -35 -135 48 -33 40
-72 49 -96 21 -7 -9 -13 -41 -13 -73 -1 -44 -9 -72 -35 -124 -19 -37 -38 -67
-42 -67 -5 0 -9 -28 -9 -62 0 -35 -3 -100 -7 -146 -5 -75 -8 -85 -33 -102 -33
-24 -76 -31 -72 -12 4 21 -134 7 -168 -18 -40 -29 -55 -25 -92 20 -29 37 -36
41 -72 38 -37 -3 -66 -28 -32 -28 23 0 20 -27 -4 -42 -11 -7 -37 -42 -58 -77
-24 -42 -54 -77 -86 -100 -47 -34 -48 -36 -25 -42 13 -4 34 -4 47 -2 18 4 25
-2 38 -33 12 -28 13 -43 5 -60 -8 -18 -6 -32 5 -59 11 -27 13 -53 8 -96 -5
-41 -3 -68 6 -84 16 -30 6 -72 -21 -80 -40 -13 -89 4 -109 38 -27 43 -26 148
1 131 5 -3 9 -3 9 0 0 6 -27 71 -41 99 -7 12 -3 30 12 60 l21 42 -46 -49 c-27
-28 -46 -58 -46 -71 0 -12 -18 -45 -41 -74 -50 -63 -72 -65 -179 -18 -89 39
-259 139 -285 167 -17 19 -17 21 0 53 9 18 16 42 14 52 -5 23 -30 27 -37 5 -5
-13 -3 -13 11 -1 15 12 17 11 17 -3 0 -9 -8 -24 -17 -33 -10 -10 -19 -29 -20
-43 -3 -58 -11 -116 -18 -134 -6 -14 -15 -17 -41 -13 -18 3 -54 -1 -80 -9 -44
-13 -48 -13 -60 5 -8 11 -32 21 -61 26 -26 4 -61 14 -78 23 -16 9 -43 22 -60
29 -29 12 -28 11 8 -18 36 -30 45 -56 31 -93 -8 -20 -24 -21 -24 -1 0 8 -9 15
-20 15 -11 0 -20 -4 -20 -8 0 -17 -50 -67 -68 -67 -13 0 -18 -10 -20 -50 -4
-90 -6 -93 -58 -93 -28 0 -51 -6 -56 -14 -7 -9 -8 -8 -4 6 5 15 2 17 -14 13
-11 -3 -20 -2 -20 3 0 4 -12 10 -28 13 -15 3 -36 7 -47 10 -11 2 -14 2 -7 0 6
-3 12 -15 12 -29 0 -23 -2 -24 -72 -24 -97 1 -161 31 -166 78 -2 19 -9 32 -17
32 -8 0 -16 4 -19 8 -9 15 6 52 21 52 8 0 12 3 10 8 -6 8 13 10 125 14 65 3
80 7 98 26 11 12 29 22 40 22 28 0 34 17 10 30 -15 8 -25 7 -44 -5 -26 -18
-49 -11 -89 24 -26 22 -101 25 -121 5 -9 -8 -16 -24 -16 -34 0 -11 -11 -31
-25 -46 -22 -24 -30 -26 -72 -21 -27 4 -60 9 -76 13 -20 5 -27 3 -27 -8 0 -10
14 -15 47 -17 26 -1 49 -4 52 -7 10 -9 -7 -12 -56 -7 l-53 6 0 63 c0 63 1 64
28 66 47 2 -99 16 -190 17 -115 1 -120 -1 -98 -46 18 -37 16 -81 -4 -89 -7 -3
-11 -19 -10 -37 2 -21 -4 -38 -16 -50 -24 -21 -27 -21 -33 1 -4 16 -5 16 -6 0
0 -10 -6 -18 -12 -18 -5 0 -8 4 -5 9 3 5 -1 14 -8 20 -10 8 -16 9 -21 1 -3 -5
0 -10 8 -10 10 0 13 -7 10 -20 -3 -11 -9 -20 -13 -20 -13 0 -21 -62 -9 -76 9
-11 8 -18 -2 -30 -10 -12 -10 -17 -1 -23 8 -5 10 -19 6 -39 -4 -17 -10 -29
-15 -26 -5 3 -9 -2 -9 -10 0 -14 -18 -21 -43 -17 -4 1 -4 -11 -1 -25 4 -17 2
-29 -7 -35 -19 -12 -76 -11 -84 1 -4 7 -12 7 -24 0 -23 -12 -130 -10 -138 3
-3 6 2 16 11 23 15 11 11 12 -30 12 -35 0 -52 5 -61 18 -11 15 -11 19 2 27 14
7 13 12 -5 38 -12 16 -28 29 -36 29 -11 0 -14 -25 -14 -141 l0 -140 207 2
c115 1 225 -1 247 -6 26 -5 40 -4 45 4 5 7 53 16 122 21 198 17 301 28 308 36
4 4 -50 8 -79 5 -13 -1 -13 -1 0 7 8 5 48 12 88 16 41 3 81 10 90 15 45 23
493 43 506 22 3 -5 -1 -25 -9 -44 -23 -57 -10 -63 154 -71 106 -5 168 -3 258
9 65 9 119 18 121 20 2 1 -22 6 -52 9 -65 9 -79 21 -33 30 85 17 1149 62 1205
51 9 -2 34 -7 55 -10 37 -6 38 -7 23 -24 -16 -17 -15 -20 14 -50 l30 -33 117
7 c233 12 230 12 253 -12 25 -28 91 -31 146 -8 34 14 36 13 60 -10 13 -13 24
-29 24 -34 0 -35 143 -48 442 -42 l76 1 -1 46 c-2 39 2 49 26 70 15 13 35 24
43 24 16 0 52 -34 70 -65 8 -14 21 -19 49 -18 21 1 40 6 44 11 3 6 24 13 46
16 22 4 55 9 73 12 21 4 50 0 78 -11 25 -10 55 -14 67 -11 90 27 251 34 720
30 l487 -4 0 76 0 76 -322 -6 c-178 -3 -400 -9 -494 -12 -95 -4 -211 -3 -259
1 -76 6 -91 10 -119 36 -29 25 -34 37 -40 91 -11 101 -14 105 -61 122 -24 8
-53 12 -63 9 -25 -6 -32 5 -36 66 -4 59 8 134 23 139 16 5 14 42 -2 42 -7 0
-18 -5 -24 -11 -8 -8 -14 3 -22 41 -6 28 -11 58 -11 66 0 26 -31 78 -73 122
-34 35 -48 42 -79 42 -52 0 -66 27 -35 66 12 16 24 30 28 32 3 1 4 14 1 27 -7
41 6 73 53 121 44 46 45 47 95 41 43 -5 51 -3 60 14 6 11 9 28 5 38 -4 14 10
25 74 54 44 20 82 37 85 37 4 0 -3 -13 -14 -28 -21 -28 -19 -62 4 -62 7 0 30
18 51 41 39 39 41 40 95 35 116 -10 123 -15 134 -97 10 -76 19 -51 20 54 1 99
0 97 55 81 18 -5 22 -4 17 5 -12 19 -58 34 -66 21 -5 -8 -17 -3 -36 13 -16 13
-38 29 -49 35 -18 10 -16 11 15 12 45 0 63 16 47 41 -9 14 -7 21 14 38 23 20
23 20 3 21 -12 0 -35 -5 -53 -11 -23 -8 -35 -8 -45 0 -10 9 -19 2 -40 -30
l-28 -41 21 -15 c28 -19 26 -33 -3 -33 -15 0 -26 7 -28 17 -2 12 -10 7 -28
-20 -14 -20 -29 -37 -33 -37 -17 0 -96 74 -101 95 -5 18 -13 22 -48 22 l-43 1
-1 -41 c-3 -79 -9 -107 -22 -107 -28 0 -93 -42 -107 -70 -23 -45 -37 -38 -29
16 6 40 3 48 -19 72 -30 32 -68 138 -67 190 1 20 -4 62 -9 92 -5 30 -13 77
-17 103 l-7 48 27 -7 c38 -9 33 11 -10 38 -25 17 -42 38 -57 78 -16 39 -28 55
-42 56 -11 1 -26 2 -33 3 -9 1 -9 10 3 38 19 44 26 52 32 36 7 -19 23 -16 46
10 24 27 56 95 57 120 0 10 4 16 9 13 4 -3 16 10 26 29 16 28 17 38 7 60 -10
21 -18 26 -37 23 -33 -7 -37 11 -19 90 9 37 22 126 30 197 26 232 -13 370
-143 508 -9 9 -21 17 -27 17 -6 -1 -1 -9 12 -19 25 -22 28 -31 8 -31 -8 0 -16
-5 -18 -12 -3 -7 -12 -9 -22 -5 -12 5 -15 13 -11 27 5 16 3 19 -10 13 -10 -3
-21 0 -25 7 -5 8 -28 15 -52 16 -57 2 -58 2 -58 15 0 6 7 9 15 5 8 -3 15 -1
15 4 0 6 -6 10 -14 10 -8 0 -13 7 -12 15 4 25 17 31 31 12 7 -11 19 -15 29
-11 15 6 15 8 -1 19 -21 15 -201 26 -209 14 -5 -9 -36 0 -45 13 -3 4 -18 10
-35 12 -16 3 -41 7 -55 10 -15 3 -42 0 -60 -8 -31 -13 -35 -12 -50 6 -17 19
-18 19 -38 -1z m153 -72 c-3 -5 -11 -9 -19 -9 -8 0 -18 -7 -23 -16 -5 -9 -15
-14 -21 -10 -6 4 -9 12 -6 17 4 5 1 9 -5 9 -6 0 -9 4 -5 9 3 6 23 9 45 9 22 0
37 -4 34 -9z m261 -9 c3 -5 2 -10 -4 -10 -5 0 -13 5 -16 10 -3 6 -2 10 4 10 5
0 13 -4 16 -10z m71 -49 c-7 -11 17 -21 50 -21 14 0 24 -6 24 -14 0 -10 -7
-13 -20 -10 -64 14 -64 14 -52 2 17 -17 15 -28 -3 -21 -11 4 -14 15 -11 37 5
37 5 36 12 36 3 0 3 -4 0 -9z m-12 -127 c3 -8 2 -12 -4 -9 -6 3 -10 10 -10 16
0 14 7 11 14 -7z m-18 -33 c-4 -5 -1 -11 6 -13 9 -3 9 -13 2 -38 -10 -35 -34
-53 -34 -25 0 9 5 13 10 10 6 -3 10 -2 10 4 0 5 3 17 7 27 4 12 3 15 -5 10 -8
-5 -12 0 -12 13 0 12 5 21 11 21 5 0 8 -4 5 -9z m-578 -189 c2 -7 -2 -10 -12
-6 -9 3 -16 11 -16 16 0 13 23 5 28 -10z m-366 -48 c3 -3 4 -14 1 -24 -4 -17
-7 -17 -19 -5 -8 7 -14 18 -14 24 0 11 23 15 32 5z m-12 -109 c0 -12 -7 -25
-15 -29 -9 -3 -15 0 -15 9 0 8 5 15 11 15 6 0 9 9 6 20 -3 11 -1 18 4 14 5 -3
9 -16 9 -29z m250 -124 c0 -9 -41 -23 -49 -16 -3 4 28 20 47 24 1 1 2 -3 2 -8z
m1027 -253 c-3 -8 -6 -5 -6 6 -1 11 2 17 5 13 3 -3 4 -12 1 -19z m-2087 -84
c0 -8 -9 -11 -27 -8 -38 7 -46 14 -33 29 14 17 60 0 60 -21z m1928 -222 c15
-37 35 -139 36 -184 1 -22 11 -49 26 -70 28 -37 30 -73 15 -236 -6 -72 -5 -96
4 -102 13 -8 19 -89 7 -108 -3 -6 -23 -16 -44 -23 -20 -6 -59 -27 -87 -45
-118 -78 -183 -73 -157 12 5 19 7 34 4 34 -8 0 -63 -93 -75 -127 -12 -31 -94
-40 -185 -20 -55 13 -96 14 -216 7 -158 -8 -195 -3 -232 31 -43 40 -46 71 -29
275 9 104 18 191 21 194 8 7 34 -30 34 -48 0 -8 19 -52 42 -99 34 -71 49 -90
87 -114 37 -24 56 -29 106 -29 82 0 121 22 230 134 86 87 174 146 219 146 20
0 32 9 101 75 76 72 92 143 60 266 -9 33 -13 64 -9 70 8 14 29 -5 42 -39z
m-472 1 c-11 -11 -17 4 -9 23 7 18 8 18 11 1 2 -10 1 -21 -2 -24z m-3715 -14
c19 -1 48 2 66 6 39 9 48 -5 57 -97 6 -60 4 -70 -14 -88 -17 -17 -33 -20 -103
-20 -89 0 -98 3 -116 39 -11 20 -10 27 8 52 12 15 21 42 21 59 0 43 18 74 34
61 7 -6 28 -11 47 -12z m37 -276 c72 -8 89 -32 76 -111 -8 -52 -12 -59 -45
-75 -51 -25 -122 -26 -148 -3 -17 16 -21 31 -21 83 0 39 6 76 16 95 13 25 20
29 42 24 15 -4 51 -10 80 -13z m3668 -95 c-9 -12 -16 -19 -16 -15 0 11 24 47
28 42 2 -2 -3 -14 -12 -27z m-351 2 c3 -5 1 -10 -4 -10 -6 0 -11 5 -11 10 0 6
2 10 4 10 3 0 8 -4 11 -10z m34 -46 c3 -16 1 -17 -13 -5 -19 16 -21 34 -3 29
6 -3 14 -13 16 -24z m165 1 c-9 -14 -30 -26 -51 -30 -31 -6 -39 -3 -60 21 -12
15 -23 28 -23 28 0 1 34 2 74 2 l75 1 -15 -22z m1096 -45 c0 -5 -2 -10 -4 -10
-3 0 -8 5 -11 10 -3 6 -1 10 4 10 6 0 11 -4 11 -10z m7 -66 c5 -15 -48 -37
-60 -25 -15 15 12 43 36 39 11 -2 22 -8 24 -14z m-4677 -654 c0 -13 -100 -13
-120 0 -11 7 5 10 53 10 38 0 67 -4 67 -10z m519 -64 c9 -10 8 -15 -4 -19 -9
-4 -19 2 -25 13 -8 16 -8 20 3 20 8 0 20 -6 26 -14z m1238 -76 c-4 -28 -21
-42 -40 -34 -24 9 -21 33 6 44 33 13 37 12 34 -10z m-1267 -10 c0 -5 -2 -10
-4 -10 -3 0 -8 5 -11 10 -3 6 -1 10 4 10 6 0 11 -4 11 -10z m1390 -27 c0 -22
-2 -25 -10 -13 -13 20 -13 40 0 40 6 0 10 -12 10 -27z m340 -37 c0 -8 7 -22
17 -31 14 -14 14 -18 2 -26 -18 -11 -32 -11 -63 1 -32 12 -33 33 -3 53 28 20
47 21 47 3z m-1863 -123 c-26 -14 -49 -17 -27 -3 10 7 11 10 2 10 -9 0 -10 4
-1 19 11 17 14 17 30 2 18 -15 18 -16 -4 -28z m1857 22 c-1 -11 -3 -27 -5 -35
-2 -9 2 -14 10 -12 7 1 30 4 51 6 20 2 42 6 47 9 6 4 16 0 23 -8 9 -11 16 -12
25 -5 9 7 16 6 24 -4 10 -12 105 -13 625 -8 452 4 615 2 620 -6 9 -15 -47 -50
-94 -59 -19 -3 -50 -12 -68 -20 -124 -52 -320 -70 -904 -84 -533 -12 -667 -8
-1116 38 -195 20 -223 10 -99 -34 26 -10 47 -22 47 -26 0 -14 -71 2 -105 23
-16 11 -58 35 -92 55 -73 43 -91 61 -75 77 8 8 123 12 379 14 401 4 427 6 481
33 58 29 95 30 107 4 15 -34 29 -28 53 23 18 36 27 45 45 42 15 -2 22 -10 21
-23z m-1054 -45 c0 -5 -7 -7 -15 -4 -8 4 -15 8 -15 10 0 2 7 4 15 4 8 0 15 -4
15 -10z m-774 -11 c3 -6 -2 -18 -11 -27 -10 -10 -15 -12 -11 -5 3 6 2 14 -4
18 -11 7 -4 25 10 25 5 0 12 -5 16 -11z m267 -276 c-7 -2 -19 -2 -25 0 -7 3
-2 5 12 5 14 0 19 -2 13 -5z"/>
<path d="M3497 3896 c-26 -28 -34 -46 -21 -46 13 0 55 52 51 63 -2 7 -15 -1
-30 -17z"/>
<path d="M4255 3890 c3 -5 10 -10 16 -10 5 0 9 5 9 10 0 6 -7 10 -16 10 -8 0
-12 -4 -9 -10z"/>
<path d="M3490 3687 c-20 -8 -22 -11 -8 -14 20 -5 55 12 42 19 -5 3 -20 1 -34
-5z"/>
<path d="M3347 3496 c-11 -16 -13 -26 -5 -34 17 -17 57 14 51 38 -7 27 -27 25
-46 -4z"/>
<path d="M3338 3433 c7 -3 16 -2 19 1 4 3 -2 6 -13 5 -11 0 -14 -3 -6 -6z"/>
<path d="M3498 3293 c7 -3 16 -2 19 1 4 3 -2 6 -13 5 -11 0 -14 -3 -6 -6z"/>
<path d="M3948 2963 c7 -3 16 -2 19 1 4 3 -2 6 -13 5 -11 0 -14 -3 -6 -6z"/>
<path d="M3310 2890 c-12 -8 -8 -16 25 -44 39 -33 39 -35 22 -53 -22 -25 -22
-33 3 -33 10 0 23 -6 27 -14 13 -22 52 -38 76 -31 22 7 22 7 2 -8 -19 -15 -19
-16 10 -22 17 -3 38 -11 48 -16 13 -7 23 -7 33 2 17 14 9 30 -11 22 -8 -3 -15
0 -15 6 0 6 5 11 11 11 17 0 -29 53 -76 85 -23 17 -63 47 -87 68 -50 41 -48
40 -68 27z"/>
<path d="M5856 2555 c10 -8 24 -15 30 -15 13 0 54 -43 54 -57 0 -13 108 -103
123 -103 6 0 21 -10 34 -22 l23 -21 0 25 c0 14 -9 51 -20 84 -12 34 -18 70
-15 85 5 23 2 27 -26 33 -17 3 -75 6 -127 6 -86 0 -94 -1 -76 -15z"/>
<path d="M3701 2481 c-14 -24 -14 -31 -1 -31 14 0 32 38 21 45 -6 3 -15 -3
-20 -14z"/>
<path d="M3295 2308 c-15 -33 -25 -70 -24 -98 l0 -45 18 60 c9 33 25 74 34 92
20 37 21 43 7 43 -6 0 -22 -24 -35 -52z"/>
<path d="M6099 2162 c-9 -10 -35 -45 -59 -78 -49 -67 -166 -183 -222 -221 -66
-44 -64 -45 152 -28 30 2 76 4 103 5 l47 0 0 40 c0 37 -2 40 -29 40 -82 0
-114 24 -87 65 20 31 89 101 104 106 9 3 12 19 10 47 -3 40 -4 42 -19 24z
m-99 -237 c10 -12 10 -15 -2 -15 -8 0 -15 7 -15 15 0 8 1 15 2 15 2 0 8 -7 15
-15z"/>
<path d="M1676 2145 c-6 -16 14 -30 34 -23 7 2 4 11 -8 21 -17 16 -20 16 -26
2z"/>
<path d="M1772 2115 c21 -19 43 -35 50 -35 7 0 -4 16 -24 35 -21 19 -43 35
-50 35 -7 0 4 -16 24 -35z"/>
<path d="M3232 2087 c-25 -50 -26 -57 -12 -57 6 0 10 7 10 15 0 9 7 27 16 40
9 13 14 29 12 36 -2 6 -14 -9 -26 -34z"/>
<path d="M5300 2060 c20 -13 33 -13 25 0 -3 6 -14 10 -23 10 -15 0 -15 -2 -2
-10z"/>
<path d="M1456 1978 c-50 -26 -75 -50 -59 -55 8 -3 10 -15 6 -34 -7 -39 10
-37 38 3 17 23 19 33 10 36 -7 2 0 12 19 24 18 10 39 17 46 14 8 -3 14 -1 14
4 0 6 10 10 23 10 18 0 19 2 7 10 -24 15 -62 11 -104 -12z"/>
<path d="M1641 1952 c13 -10 32 -22 42 -25 15 -5 16 -3 8 12 -11 20 -32 31
-58 31 -11 0 -9 -5 8 -18z"/>
<path d="M1769 1875 c17 -20 31 -40 31 -45 0 -6 5 -10 10 -10 6 0 10 4 10 10
0 13 -60 80 -72 80 -6 0 4 -16 21 -35z"/>
<path d="M2008 1863 c7 -3 16 -2 19 1 4 3 -2 6 -13 5 -11 0 -14 -3 -6 -6z"/>
<path d="M5013 1843 c-24 -9 -14 -33 13 -33 18 0 25 5 22 17 -3 18 -16 24 -35
16z"/>
<path d="M1480 1818 c-30 -22 -52 -53 -63 -88 -6 -21 -8 -30 -4 -27 2 1 11 -4
19 -11 19 -15 28 2 28 49 0 33 47 85 84 92 17 3 16 5 -5 6 -14 0 -41 -9 -59
-21z"/>
<path d="M6025 1723 c-118 -6 -120 -23 -2 -23 80 0 97 3 97 15 0 8 -3 14 -7
13 -5 -1 -44 -4 -88 -5z"/>
<path d="M2315 1701 c-3 -6 3 -15 14 -20 16 -9 18 -8 14 9 -6 21 -18 26 -28
11z"/>
<path d="M5883 1703 c9 -2 23 -2 30 0 6 3 -1 5 -18 5 -16 0 -22 -2 -12 -5z"/>
<path d="M1620 1661 c0 -5 14 -14 30 -20 34 -11 39 -5 13 15 -21 15 -43 18
-43 5z"/>
<path d="M4615 1660 c3 -5 19 -10 34 -10 31 0 61 -27 61 -56 0 -16 2 -16 16 5
15 21 22 22 68 17 43 -6 56 -4 77 13 14 11 41 24 60 29 26 8 -9 10 -144 11
-116 1 -176 -2 -172 -9z"/>
<path d="M5860 1544 c-91 -6 -214 -13 -275 -13 -125 -2 -392 -24 -402 -34 -23
-24 58 -26 617 -18 157 2 292 2 300 0 11 -3 16 6 18 39 l3 42 -48 -2 c-26 0
-122 -7 -213 -14z"/>
<path d="M4848 1495 c-16 -9 -28 -20 -28 -26 0 -14 51 -31 75 -25 11 3 35 9
54 13 39 10 51 29 24 36 -53 15 -100 16 -125 2z"/>
<path d="M448 1403 c7 -3 16 -2 19 1 4 3 -2 6 -13 5 -11 0 -14 -3 -6 -6z"/>
<path d="M1025 1240 c-3 -5 -1 -10 4 -10 6 0 11 5 11 10 0 6 -2 10 -4 10 -3 0
-8 -4 -11 -10z"/>
<path d="M130 979 c0 -5 5 -7 10 -4 6 3 10 8 10 11 0 2 -4 4 -10 4 -5 0 -10
-5 -10 -11z"/>
<path d="M27 573 l-27 -4 0 -285 0 -284 3060 0 3060 0 0 251 0 252 -47 -6
c-27 -4 -104 -9 -173 -13 -69 -3 -152 -12 -185 -18 -33 -6 -73 -10 -90 -8 -16
2 -118 3 -225 3 -107 -1 -233 3 -280 9 -80 9 -214 19 -360 25 -36 1 -95 10
-132 20 -57 14 -79 15 -140 5 -44 -7 -111 -8 -168 -5 -90 7 -97 6 -125 -16
-25 -20 -40 -24 -100 -22 -38 1 -94 4 -124 8 -31 4 -79 2 -113 -5 -50 -9 -63
-9 -76 3 -10 8 -33 22 -52 32 -32 16 -50 17 -268 5 -128 -7 -277 -10 -330 -7
-53 4 -191 1 -307 -5 -264 -13 -414 -11 -535 7 -188 28 -400 38 -481 24 -98
-18 -168 -15 -258 9 -56 15 -81 18 -100 10 -14 -5 -68 -12 -119 -15 -72 -4
-100 -2 -126 11 -33 16 -210 19 -781 16 -82 -1 -199 1 -260 4 -60 2 -122 2
-138 -1z"/>
</g>
</svg>
